<svg xmlns="http://www.w3.org/2000/svg" xmlns:xlink="http://www.w3.org/1999/xlink" width="500" zoomAndPan="magnify" viewBox="0 0 375 374.999991" height="500" preserveAspectRatio="xMidYMid meet" version="1.0"><defs><clipPath id="d1f75357db"><path d="M 37.5 37.5 L 337.5 37.5 L 337.5 337.5 L 37.5 337.5 Z M 37.5 37.5 " clip-rule="nonzero"/></clipPath><clipPath id="c9a9b16142"><path d="M 187.5 37.5 C 104.65625 37.5 37.5 104.65625 37.5 187.5 C 37.5 270.34375 104.65625 337.5 187.5 337.5 C 270.34375 337.5 337.5 270.34375 337.5 187.5 C 337.5 104.65625 270.34375 37.5 187.5 37.5 Z M 187.5 37.5 " clip-rule="nonzero"/></clipPath><clipPath id="1ba0696bf4"><path d="M 0.5 0.5 L 300.5 0.5 L 300.5 300.5 L 0.5 300.5 Z M 0.5 0.5 " clip-rule="nonzero"/></clipPath><clipPath id="b2697cb16a"><path d="M 150.5 0.5 C 67.65625 0.5 0.5 67.65625 0.5 150.5 C 0.5 233.34375 67.65625 300.5 150.5 300.5 C 233.34375 300.5 300.5 233.34375 300.5 150.5 C 300.5 67.65625 233.34375 0.5 150.5 0.5 Z M 150.5 0.5 " clip-rule="nonzero"/></clipPath><clipPath id="a9266bf459"><rect x="0" width="301" y="0" height="301"/></clipPath><clipPath id="d0761cd845"><path d="M 71.5 92.820312 L 303.492188 92.820312 L 303.492188 281.820312 L 71.5 281.820312 Z M 71.5 92.820312 " clip-rule="nonzero"/></clipPath></defs><g clip-path="url(#d1f75357db)"><g clip-path="url(#c9a9b16142)"><g transform="matrix(1, 0, 0, 1, 37, 37)"><g clip-path="url(#a9266bf459)"><g clip-path="url(#1ba0696bf4)"><g clip-path="url(#b2697cb16a)"><path fill="#000000" d="M 0.5 0.5 L 300.5 0.5 L 300.5 300.5 L 0.5 300.5 Z M 0.5 0.5 " fill-opacity="1" fill-rule="nonzero"/></g></g></g></g></g></g><g clip-path="url(#d0761cd845)"><path fill="#ffffff" d="M 85.753906 137.125 C 85.753906 129.050781 92.324219 122.480469 100.402344 122.480469 L 152.832031 122.480469 L 162.546875 107.890625 C 162.820312 107.570312 163.664062 107.121094 163.992188 107.070312 L 210.917969 107.070312 C 211.324219 107.117188 212.15625 107.5625 212.378906 107.816406 L 222.15625 122.480469 L 274.597656 122.480469 C 282.671875 122.480469 289.242188 129.050781 289.242188 137.125 L 289.242188 253.257812 C 289.242188 261.335938 282.671875 267.914062 274.597656 267.914062 L 100.402344 267.914062 C 92.324219 267.914062 85.753906 261.335938 85.753906 253.257812 Z M 100.402344 282.164062 L 274.597656 282.164062 C 290.53125 282.164062 303.492188 269.199219 303.492188 253.257812 L 303.492188 137.125 C 303.492188 121.191406 290.53125 108.226562 274.597656 108.226562 L 229.785156 108.226562 L 224.242188 99.921875 C 221.515625 95.804688 215.945312 92.824219 211.003906 92.824219 L 163.992188 92.824219 C 158.984375 92.824219 153.539062 95.730469 150.746094 99.90625 L 145.199219 108.226562 L 100.402344 108.226562 C 84.46875 108.226562 71.5 121.191406 71.5 137.125 L 71.5 253.257812 C 71.5 269.199219 84.46875 282.164062 100.402344 282.164062 " fill-opacity="1" fill-rule="nonzero"/></g><path fill="#ffffff" d="M 187.496094 146.4375 C 214.386719 146.4375 236.261719 168.3125 236.261719 195.203125 C 236.261719 222.082031 214.386719 243.953125 187.496094 243.953125 C 160.609375 243.953125 138.734375 222.082031 138.734375 195.203125 C 138.734375 168.3125 160.609375 146.4375 187.496094 146.4375 Z M 187.496094 258.207031 C 222.242188 258.207031 250.511719 229.941406 250.511719 195.203125 C 250.511719 160.457031 222.242188 132.1875 187.496094 132.1875 C 152.75 132.1875 124.484375 160.457031 124.484375 195.203125 C 124.484375 229.941406 152.75 258.207031 187.496094 258.207031 " fill-opacity="1" fill-rule="nonzero"/><path fill="#a6a6a6" d="M 187.496094 229.375 C 206.375 229.375 221.679688 214.074219 221.679688 195.199219 C 221.679688 176.316406 206.375 161.015625 187.496094 161.015625 C 168.621094 161.015625 153.3125 176.316406 153.3125 195.199219 C 153.3125 214.074219 168.621094 229.375 187.496094 229.375 " fill-opacity="1" fill-rule="nonzero"/><path fill="#ffffff" d="M 112.414062 138.09375 C 116.554688 138.09375 119.925781 141.464844 119.925781 145.609375 C 119.925781 149.75 116.554688 153.121094 112.414062 153.121094 C 108.265625 153.121094 104.898438 149.75 104.898438 145.609375 C 104.898438 141.464844 108.265625 138.09375 112.414062 138.09375 Z M 112.414062 162.625 C 121.796875 162.625 129.429688 154.992188 129.429688 145.609375 C 129.429688 136.226562 121.796875 128.589844 112.414062 128.589844 C 103.027344 128.589844 95.390625 136.226562 95.390625 145.609375 C 95.390625 154.992188 103.027344 162.625 112.414062 162.625 " fill-opacity="1" fill-rule="nonzero"/></svg>